<?xml version="1.0" encoding="UTF-8"?>
<svg version="1.1" xmlns="http://www.w3.org/2000/svg" width="190" height="190">
<path d="M0 0 C0.96808594 -0.01933594 1.93617187 -0.03867188 2.93359375 -0.05859375 C10.78641376 -0.00589026 17.7376153 1.94548926 23.47290039 7.55444336 C24.2906897 8.4556189 24.2906897 8.4556189 25.125 9.375 C28.83805658 12.86392842 32.15847774 13.1148349 37.0625 13.1875 C48.43394856 13.38571547 57.86084564 16.54217154 66.1875 24.625 C67.65757099 26.26300956 69.10064348 27.92618119 70.5 29.625 C71.7065625 31.0790625 71.7065625 31.0790625 72.9375 32.5625 C76.54999187 39.64298407 77.56907292 46.41463952 77.75 54.3125 C78.0514143 60.64861336 79.13449104 63.5439618 83.71484375 67.8515625 C90.72986107 74.82052938 90.88318909 84.1836834 90.96191406 93.42993164 C90.83652159 101.56581299 89.13882548 106.84867651 84.5 113.625 C83.89671875 114.62273437 83.89671875 114.62273437 83.28125 115.640625 C81.88044745 117.91162308 80.92176549 119.41411726 78.5 120.625 C78.29059092 122.88960965 78.1848891 125.16401758 78.125 127.4375 C77.48350887 140.97344756 72.97839448 150.54123175 63.25 159.875 C58.75789524 163.74383473 54.13920883 165.90109678 48.5 167.625 C47.89285156 167.81964844 47.28570312 168.01429688 46.66015625 168.21484375 C43.53105846 168.80897624 40.43193184 168.7049119 37.25 168.75 C30.9920101 169.01037548 27.7679198 170.29320063 23.40234375 174.76953125 C16.09647034 181.89538314 6.96960139 182.37015527 -2.71606445 182.28930664 C-12.07721505 181.89936352 -19.23338808 179.08849307 -25.8125 172.3125 C-30.00559091 168.35463126 -35.16358567 169.04668117 -40.640625 168.87890625 C-49.87468754 168.27140214 -57.75275752 164.90740114 -64.5 158.625 C-65.18964844 157.98820313 -65.87929687 157.35140625 -66.58984375 156.6953125 C-74.55798453 148.59362746 -77.66346096 139.47734902 -77.875 128.3125 C-77.97379066 123.38394397 -78.24168354 119.97664517 -81.75 116.25 C-82.65105469 115.43245239 -82.65105469 115.43245239 -83.5703125 114.59838867 C-89.17914047 108.86253892 -91.13088719 101.91187069 -91.18359375 94.05859375 C-91.16425781 93.09050781 -91.14492187 92.12242188 -91.125 91.125 C-91.15400391 89.67287109 -91.15400391 89.67287109 -91.18359375 88.19140625 C-91.13088719 80.33812931 -89.17914047 73.38746108 -83.5703125 67.65161133 C-82.96960938 67.10657959 -82.36890625 66.56154785 -81.75 66 C-77.7333 61.73333369 -77.9435121 57.3678848 -77.83300781 51.83496094 C-77.5211606 40.81806337 -73.35308019 32.65119111 -65.78125 24.74609375 C-57.39923762 16.95254456 -48.58620628 13.41897814 -37.1875 13.25 C-32.25930222 13.15348199 -28.85074498 12.88246901 -25.125 9.375 C-24.30745239 8.47394531 -24.30745239 8.47394531 -23.47338867 7.5546875 C-16.83123203 1.05962303 -8.93376424 -0.17843737 0 0 Z " fill="#FDFBF8" transform="translate(95.5,4.375)"/>
<path d="M0 0 C1.59769932 1.04077259 3.18234857 2.10199566 4.75 3.1875 C5.37648438 3.59355469 6.00296875 3.99960937 6.6484375 4.41796875 C14.006996 9.82867353 19.49149004 20.4777017 21.75 29.1875 C22.97034082 44.1961072 20.55498458 56.78500395 10.74609375 68.6015625 C2.6144259 77.30055601 -7.34192071 82.76200132 -19.328125 83.55859375 C-33.56067968 83.97690064 -44.53381412 79.89113289 -55.25 70.1875 C-57.92181913 67.02723131 -60.14772394 63.74751475 -62.25 60.1875 C-62.848125 59.176875 -63.44625 58.16625 -64.0625 57.125 C-68.16792144 46.96948381 -69.18336469 34.91009035 -65.6875 24.4375 C-60.34426688 11.90789759 -52.69310349 2.94782539 -40.33203125 -3.0234375 C-26.91907898 -8.10677026 -12.43372852 -7.12368506 0 0 Z " fill="#F79634" transform="translate(118.25,56.8125)"/>
<path d="M0 0 C9.13363956 3.84574297 14.94346483 10.08702859 19.11328125 19.10546875 C21.96969612 28.42971289 20.64230754 37.74955035 16.47265625 46.4140625 C11.67754603 54.83412342 4.47595122 60.61088599 -4.9375 63.375 C-14.24609442 65.19543076 -23.19022019 64.56706947 -31.34765625 59.55859375 C-36.93862784 55.53570768 -40.56838014 50.93468375 -44 45 C-41.04214378 43.02809585 -38.8133107 42.25350044 -35.4375 41.25 C-23.2877645 37.2537617 -13.17062754 30.36310307 -7.03613281 18.87744141 C-3.97978505 12.7893146 -1.60147714 6.61943886 0 0 Z " fill="#F79736" transform="translate(146,102)"/>
<path d="M0 0 C0.21914063 0.81082031 0.43828125 1.62164062 0.6640625 2.45703125 C4.53102457 15.95995977 10.39253269 28.49292189 22.83789062 36.12744141 C29.60069531 39.80518752 36.51609606 42.2754841 44 44 C40.25207816 52.90131437 34.61619344 58.08058002 25.95703125 62.2734375 C18.6914533 64.9708377 9.99495882 65.40720772 2.6953125 62.8359375 C-6.964497 58.1385239 -14.93219839 52.21002144 -18.8203125 41.8046875 C-21.07454163 32.9465195 -21.18509087 23.26739003 -17 15 C-13.51791979 9.6780058 -7.03474639 0 0 0 Z " fill="#F79736" transform="translate(45,102)"/>
<path d="M0 0 C4.07605457 3.40274538 7.55607615 7.21698285 10.25 11.8125 C10.25 12.4725 10.25 13.1325 10.25 13.8125 C9.43917969 14.03164063 8.62835938 14.25078125 7.79296875 14.4765625 C-5.68777577 18.33717152 -18.29624228 24.19971609 -25.87744141 36.66650391 C-29.34512611 43.10602831 -31.85865578 49.75389477 -33.75 56.8125 C-40.30839831 55.91299745 -44.28574669 51.92067879 -48.3046875 46.8515625 C-54.0439566 38.25963893 -55.0857852 28.43861912 -53.3203125 18.359375 C-50.39466407 8.0293077 -42.83693021 1.02194533 -33.75 -4.1875 C-22.82551165 -8.84052282 -9.4675236 -6.92283028 0 0 Z " fill="#F79736" transform="translate(78.75,31.1875)"/>
<path d="M0 0 C6.69124514 6.06551784 11.10131817 12.98777692 11.80078125 22.09375 C12.18502621 33.69499216 9.49602182 41.79429103 1.58984375 50.34765625 C-1.60197143 53.31148463 -4.38109183 54.8016199 -8.41015625 56.34765625 C-8.62929687 55.53683594 -8.8484375 54.72601563 -9.07421875 53.890625 C-11.98576426 43.72388682 -15.4818716 34.57638637 -23.41015625 27.34765625 C-23.41015625 26.68765625 -23.41015625 26.02765625 -23.41015625 25.34765625 C-23.97476563 25.07695313 -24.539375 24.80625 -25.12109375 24.52734375 C-27.51592132 23.29314934 -29.75462886 21.90634285 -32.03515625 20.47265625 C-38.47124856 16.58438187 -44.98648264 13.67472003 -52.41015625 12.34765625 C-50.31139401 4.88539053 -44.07230791 -0.93093904 -37.5078125 -4.6875 C-24.71619951 -10.57116556 -10.8800804 -8.40802848 0 0 Z " fill="#F79736" transform="translate(154.41015625,32.65234375)"/>
<path d="M0 0 C5.89621578 5.07729692 8.55420249 10.15547272 9.45703125 17.94140625 C9.97842157 27.41118474 8.71609469 35.08647718 3 43 C2.01 43.66 1.02 44.32 0 45 C-0.3403125 44.3709375 -0.680625 43.741875 -1.03125 43.09375 C-5.84485475 34.59312884 -11.59308819 28.04414709 -20 23 C-18.13443157 21.05669955 -16.24674199 19.20264342 -14.1640625 17.4921875 C-8.97871264 13.22073072 -5.48096437 8.72031088 -2 3 C-1.34 2.01 -0.68 1.02 0 0 Z " fill="#F79837" transform="translate(170,73)"/>
<path d="M0 0 C2.6461764 2.54032934 5.05715513 5.21426889 7.4375 8 C12.03506865 13.27109781 16.91367777 16.65848976 23 20 C17.92270308 25.89621578 12.84452728 28.55420249 5.05859375 29.45703125 C-4.41118474 29.97842157 -12.08647718 28.71609469 -20 23 C-20.66 22.01 -21.32 21.02 -22 20 C-21.28714844 19.57589844 -20.57429688 19.15179688 -19.83984375 18.71484375 C-11.4806125 13.59579904 -5.11784947 8.39327314 0 0 Z " fill="#F79837" transform="translate(95,150)"/>
<path d="M0 0 C2.85799048 1.75058908 4.85319941 3.65118304 6.99609375 6.22265625 C6.28324219 6.64675781 5.57039063 7.07085937 4.8359375 7.5078125 C-3.52329375 12.62685721 -9.88605678 17.82938311 -15.00390625 26.22265625 C-16.9472067 24.35708782 -18.80126283 22.46939824 -20.51171875 20.38671875 C-24.24831663 15.85066272 -27.96682562 12.61066524 -32.98828125 9.546875 C-34.932322 8.26968544 -36.42756737 6.92370549 -38.00390625 5.22265625 C-36.61213993 4.25842599 -35.21528395 3.30154023 -33.81640625 2.34765625 C-33.03910156 1.81398438 -32.26179688 1.2803125 -31.4609375 0.73046875 C-22.33843898 -4.86775769 -9.59217207 -4.51301182 0 0 Z " fill="#F79837" transform="translate(111.00390625,14.77734375)"/>
<path d="M0 0 C2.36671907 2.19371329 3.95810314 4.43370841 5.625 7.1875 C8.51822083 11.63247335 11.90212739 14.87639708 15.94921875 18.2734375 C17.73341543 19.77556118 19.38069428 21.3241471 21 23 C20.43152344 23.4125 19.86304687 23.825 19.27734375 24.25 C11.43757156 30.11346902 5.53239381 36.29780389 1 45 C-4.35762244 40.40775219 -7.66769926 33.63007012 -8.30859375 26.62890625 C-8.71749338 17.07294558 -7.46378354 10.18152044 -2 2 C-1.34 1.34 -0.68 0.68 0 0 Z " fill="#F79837" transform="translate(20,73)"/>
</svg>
