<?xml version="1.0" encoding="UTF-8"?>
<svg version="1.1" xmlns="http://www.w3.org/2000/svg" width="1086" height="1080">
<path d="M0 0 C7.33718684 6.8117617 13.79730424 14.15473852 20 22 C20.65484375 22.78761719 21.3096875 23.57523437 21.984375 24.38671875 C46.6070975 54.18021297 60.67173079 89.82774109 68.44287109 127.31396484 C74.33972479 155.74393171 84.7870766 177.58350498 105 199 C105.68449219 199.74894531 106.36898437 200.49789063 107.07421875 201.26953125 C127.14626553 222.45463054 153.76483608 232.3883876 181.72070312 237.80529785 C223.11556945 245.8802951 262.80542432 264.3666146 293.51171875 293.62890625 C295.61809341 295.63607959 297.76611653 297.51418872 300 299.375 C340.87150331 334.98917301 365.22102491 392.41244127 369.77294922 445.49414062 C371.68629768 475.03788675 368.90776775 503.44390879 361 532 C360.7529834 532.89251465 360.5059668 533.7850293 360.25146484 534.70458984 C351.08736264 566.7698742 333.69979268 596.19543773 311.171875 620.640625 C309.70307187 622.23623128 308.25550929 623.85161167 306.828125 625.484375 C274.62544971 662.25480565 227.41152641 685.57395932 179.9100647 694.56375122 C156.31979946 699.03348184 134.18627017 706.69616832 116 723 C115.16210938 723.73089844 114.32421875 724.46179688 113.4609375 725.21484375 C110.94019576 727.44238744 108.46456647 729.71060106 106 732 C105.33355469 732.60070312 104.66710937 733.20140625 103.98046875 733.8203125 C82.23676377 754.27976607 72.99709113 781.64612547 67.29516602 810.07592773 C56.50537743 863.18776145 27.50036899 911.22192896 -15 945 C-15.95519531 945.78375 -16.91039062 946.5675 -17.89453125 947.375 C-31.92052227 958.61019691 -47.73206043 967.44032124 -64 975 C-65.66482422 975.77923828 -65.66482422 975.77923828 -67.36328125 976.57421875 C-89.37936659 986.43100901 -113.00244934 992.61411635 -137 995 C-138.08410156 995.11085938 -139.16820312 995.22171875 -140.28515625 995.3359375 C-204.02866761 1000.85291977 -265.44581749 980.5059936 -314.28686523 939.6315918 C-325.27494215 930.3084208 -335.11605917 920.36575348 -344 909 C-344.76570313 908.06285156 -345.53140625 907.12570312 -346.3203125 906.16015625 C-370.72220012 875.67741239 -384.54540063 840.02484034 -392 802 C-397.55375449 774.43356954 -408.67949266 752.54606191 -428 732 C-428.5259375 731.40960937 -429.051875 730.81921875 -429.59375 730.2109375 C-448.34642461 710.02310922 -474.15040983 700.25539571 -500.4765625 695.2734375 C-538.90468812 687.92705261 -575.54605247 672.91686616 -606 648 C-606.99644531 647.20722656 -607.99289062 646.41445313 -609.01953125 645.59765625 C-625.00787252 632.67414843 -639.18515755 617.81040762 -651 601 C-651.44102051 600.38237793 -651.88204102 599.76475586 -652.33642578 599.12841797 C-687.90233862 549.05129021 -700.79619526 486.34002265 -691 426 C-682.56774212 379.7025083 -661.36260897 339.01178879 -629 305 C-628.46068848 304.43200684 -627.92137695 303.86401367 -627.36572266 303.27880859 C-619.1548107 294.69305581 -610.60855876 286.98920431 -601 280 C-600.36835937 279.53996582 -599.73671875 279.07993164 -599.0859375 278.60595703 C-567.43182593 255.77180334 -532.24894707 242.7151103 -494.0625 235.5 C-460.70147292 229.08657305 -431.07828867 209.13426024 -411.875 180.9375 C-401.37693976 164.90507987 -395.36657911 148.06217343 -391.94140625 129.30078125 C-385.11280771 92.03631603 -370.74004951 56.77130533 -347 27 C-346.29488281 26.1028125 -345.58976562 25.205625 -344.86328125 24.28125 C-322.17558585 -4.06818626 -294.01997952 -26.72658842 -261 -42 C-260.3709375 -42.29712891 -259.741875 -42.59425781 -259.09375 -42.90039062 C-236.06764498 -53.72926583 -211.32300294 -60.48233728 -186 -63 C-184.91589844 -63.11085938 -183.83179688 -63.22171875 -182.71484375 -63.3359375 C-114.92626817 -69.2030189 -49.9648719 -45.56698587 0 0 Z M-211 139 C-212.21719727 139.19867676 -213.43439453 139.39735352 -214.68847656 139.60205078 C-290.70963571 152.36786807 -364.31793699 191.14209276 -414 251 C-414.65790527 251.77923828 -414.65790527 251.77923828 -415.32910156 252.57421875 C-461.6410906 307.52989926 -492.85265667 380.05620596 -493.203125 452.66015625 C-493.21013931 453.63990921 -493.21715363 454.61966217 -493.22438049 455.62910461 C-493.24178305 458.7736171 -493.24823296 461.91794112 -493.25 465.0625 C-493.25067474 466.1382428 -493.25134949 467.2139856 -493.25204468 468.32232666 C-493.23599138 484.42693813 -492.74478584 500.09630918 -490 516 C-489.74259033 517.56886963 -489.74259033 517.56886963 -489.47998047 519.16943359 C-479.67524713 578.02411975 -454.35395524 632.38989107 -416 678 C-415.1249062 679.06242275 -414.24991111 680.1249268 -413.375 681.1875 C-407.63823256 688.08452369 -401.59043815 694.59013997 -395.25 700.9375 C-394.55326172 701.63504395 -393.85652344 702.33258789 -393.13867188 703.05126953 C-373.7298427 722.25313252 -351.54245719 738.27754896 -328 752 C-327.21786133 752.45761719 -326.43572266 752.91523437 -325.62988281 753.38671875 C-290.41316706 773.82128604 -251.21735208 786.95164627 -211 793 C-210.0601123 793.14953125 -209.12022461 793.2990625 -208.15185547 793.453125 C-176.92126871 798.27141004 -143.17120445 798.17350888 -112 793 C-110.78280273 792.80132324 -109.56560547 792.60264648 -108.31152344 792.39794922 C-33.29820072 779.80137238 42.76087854 741.34805825 90.7421875 680.8125 C92.71275058 678.35781934 94.75153595 675.9855231 96.82910156 673.62158203 C141.78213832 622.02738851 169.87230187 547.87404216 170.203125 479.33984375 C170.21013931 478.36009079 170.21715363 477.38033783 170.22438049 476.37089539 C170.24178305 473.2263829 170.24823296 470.08205888 170.25 466.9375 C170.25067474 465.8617572 170.25134949 464.7860144 170.25204468 463.67767334 C170.23599138 447.57306187 169.74478584 431.90369082 167 416 C166.74259033 414.43113037 166.74259033 414.43113037 166.47998047 412.83056641 C156.67524713 353.97588025 131.35395524 299.61010893 93 254 C92.1249062 252.93757725 91.24991111 251.8750732 90.375 250.8125 C84.63823256 243.91547631 78.59043815 237.40986003 72.25 231.0625 C71.55326172 230.36495605 70.85652344 229.66741211 70.13867188 228.94873047 C50.7298427 209.74686748 28.54245719 193.72245104 5 180 C4.21786133 179.54238281 3.43572266 179.08476562 2.62988281 178.61328125 C-32.58683294 158.17871396 -71.78264792 145.04835373 -112 139 C-112.9398877 138.85046875 -113.87977539 138.7009375 -114.84814453 138.546875 C-146.07873129 133.72858996 -179.82879555 133.82649112 -211 139 Z " fill="#FB4B00" transform="translate(705,74)"/>
</svg>
